PathFileType	4	(X/Y/Z)	..\data\SUBJ01\dynamic\walk.trc
DataRate	CameraRate	NumFrames	NumMarkers	Units	OrigDataRate	OrigDataStartFrame	OrigNumFrames
100.000000	100.000000	6	33	mm	100.000000	0	337
Frame#	Time	LFHD			RFHD			LBHD			RBHD			C7			T10			CLAV			STRN			LSHO			LELB			LWRA			LWRB			LFIN			RSHO			RELB			RWRA			RWRB			RFIN			LASI			RASI			SACR			LTHI			LKNE			LTIB			LANK			LHEE			LTOE			RTHI			RKNE			RTIB			RANK			RHEE			RTOE			
		X1	Y1	Z1	X2	Y2	Z2	X3	Y3	Z3	X4	Y4	Z4	X5	Y5	Z5	X6	Y6	Z6	X7	Y7	Z7	X8	Y8	Z8	X9	Y9	Z9	X10	Y10	Z10	X11	Y11	Z11	X12	Y12	Z12	X13	Y13	Z13	X14	Y14	Z14	X15	Y15	Z15	X16	Y16	Z16	X17	Y17	Z17	X18	Y18	Z18	X19	Y19	Z19	X20	Y20	Z20	X21	Y21	Z21	X22	Y22	Z22	X23	Y23	Z23	X24	Y24	Z24	X25	Y25	Z25	X26	Y26	Z26	X27	Y27	Z27	X28	Y28	Z28	X29	Y29	Z29	X30	Y30	Z30	X31	Y31	Z31	X32	Y32	Z32	X33	Y33	Z33	

1	0.9500000000000001	70.82205963134767	1525.985961914063	-263.0962524414063	54.31195449829103	1498.648315429688	-141.824447631836	-80.16896057128908	1447.708251953125	-284.5055847167969	-93.98992156982423	1426.736572265625	-154.3213806152344	-129.4813385009766	1337.663696289063	-210.5933837890626	-195.5848541259766	1117.616943359375	-216.4895324707032	17.91757011413575	1237.19287109375	-227.0355224609376	75.47271728515626	1080.327270507813	-215.5178527832032	-85.65545654296876	1293.868896484375	-388.008026123047	-174.3543853759766	1003.766174316406	-478.1788024902345	-99.15550231933597	772.118103027344	-487.1997070312501	-156.4492340087891	766.3579101562501	-518.8697509765626	-93.48052215576173	681.7230834960939	-513.0087280273439	-48.85242080688478	1273.9921875	-44.74744033813477	-33.33412170410157	992.9774169921877	74.69225311279298	157.6528472900391	846.735290527344	7.143767833709719	115.7848663330078	803.896911621094	57.45811843872072	222.4566345214844	789.931091308594	25.49451065063477	3.275251865386964	841.4490966796877	-336.7452087402344	-19.97472381591797	846.6810302734377	-60.25923156738283	-184.409164428711	859.8157958984377	-212.2624206542969	-22.09526443481446	569.3645019531251	-418.1290283203126	75.6810760498047	424.6727294921876	-331.5896911621094	122.8345489501953	190.1358642578125	-359.5934448242188	186.7161865234375	70.30086517333986	-299.9674072265626	134.3455200195313	42.46198654174805	-258.0958251953126	295.4572143554688	80.26190185546876	-273.2805175781251	-118.3491821289063	565.3444824218751	-22.74962043762207	-163.9295806884766	394.2553100585939	-107.5263977050782	-269.1392517089844	179.2548065185547	-82.96218109130861	-341.3928527832032	81.65200805664064	-140.2403869628907	-396.4866027832032	90.43795013427736	-189.5858764648438	-238.2061920166016	45.59505081176759	-163.8769683837891	
2	0.96	83.1561965942383	1525.081787109375	-263.8948364257813	66.54570770263673	1497.662719726563	-142.6651458740235	-67.8906707763672	1446.945922851563	-285.4744873046876	-81.81251525878908	1425.87939453125	-155.3141174316407	-117.3827667236328	1336.90380859375	-211.4967803955079	-183.7262268066407	1116.987182617188	-216.7389373779297	29.84144401550294	1236.249267578125	-228.2194366455079	87.41320800781251	1079.3427734375	-217.0929565429688	-74.11834716796876	1292.732055664063	-388.8952941894532	-161.0864715576172	1002.255615234375	-479.3269042968751	-85.83279418945314	770.664733886719	-489.3325805664064	-143.1536102294922	765.0797119140626	-520.9607543945314	-80.13380432128908	680.5338134765626	-515.7852783203126	-36.48957824707032	1272.855224609375	-45.74664306640626	-22.70193672180176	991.335388183594	73.08522796630861	166.7554626464844	842.7718505859377	6.288679122924806	124.199333190918	800.4261474609377	56.40903854370119	230.8044586181641	785.291442871094	24.95909309387208	14.35317134857178	841.1007080078127	-338.1903686523438	-7.455630302429201	845.195495605469	-61.67925262451173	-172.7771759033203	859.0954589843752	-212.577133178711	-8.717151641845705	569.6533203125001	-418.8528137207032	87.7723846435547	424.6773681640626	-332.5867614746094	129.6513061523438	189.3793182373047	-359.4658203125001	190.2210998535157	68.44577789306642	-299.6013488769532	137.0411529541016	43.01450347900391	-257.6219177246094	299.0932006835938	74.76888275146486	-272.8861083984376	-106.1259460449219	563.8166503906251	-23.99981117248536	-152.3786926269532	393.3170471191407	-107.742301940918	-263.5125122070313	181.2270812988282	-82.72274780273439	-338.8615722656251	85.60824584960939	-139.5097808837891	-393.6292724609376	96.4185485839844	-188.6704254150391	-237.5096740722657	45.57341384887696	-164.1101989746094	
3	0.97	95.58023071289064	1524.472778320313	-264.7582702636719	78.91101837158205	1496.984497070313	-143.5617218017578	-55.55691528320314	1446.529418945313	-286.4402160644532	-69.53093719482423	1425.38427734375	-156.2948150634766	-105.2066040039063	1336.5107421875	-212.4010009765626	-171.831527709961	1116.704345703125	-216.9580993652344	41.83123016357423	1235.6650390625	-229.4291381835938	99.4189147949219	1078.728515625	-218.7459869384766	-62.48026275634767	1291.966064453125	-389.786102294922	-147.485107421875	1001.073120117188	-480.4617614746095	-72.02838134765626	769.5898437500002	-491.400604248047	-129.3625030517578	764.1422119140626	-523.0103759765626	-66.2377395629883	679.7285156250001	-518.5065917968751	-23.99714279174805	1272.108276367188	-46.77717590332032	-12.13173961639405	990.0100708007815	71.31544494628908	175.3400268554688	838.5330810546877	5.455982208251954	131.9436950683594	796.8519287109377	55.3722496032715	238.4282531738282	780.2075195312502	24.53036689758301	25.47606277465821	841.255798339844	-339.6991271972657	5.132109165191651	844.0510253906252	-63.21823120117189	-161.109130859375	858.676452636719	-212.9097442626954	5.024706363677979	570.5496215820314	-419.8160095214845	99.64717864990237	424.9105834960939	-333.8134765625001	136.2408447265625	188.8566131591797	-359.6891174316407	193.0520019531251	66.79432678222658	-299.3982849121094	138.9939727783203	43.69978713989259	-257.4563903808594	301.9936218261719	69.44374084472658	-272.4386901855469	-93.27491760253908	562.4119873046876	-25.30860328674317	-139.7671051025391	392.4460449218751	-107.8450469970703	-257.0780334472657	183.7685546875	-82.36917877197267	-335.6246032714844	90.28990173339845	-138.708984375	-389.8079223632814	103.3632278442383	-187.7677917480469	-236.6117401123047	45.5992660522461	-164.362548828125	
4	0.98	108.05859375	1524.15625	-265.6881103515626	91.38265228271486	1496.619750976563	-144.5119934082032	-43.20530700683594	1446.455810546875	-287.3841857910157	-57.17171478271486	1425.2587890625	-157.2436065673828	-92.98317718505861	1336.481079101563	-213.2852783203126	-159.9203643798828	1116.759765625	-217.1537170410157	53.86481857299806	1235.445068359375	-230.6386718750001	111.463623046875	1078.48876953125	-220.4392395019532	-50.74209213256837	1291.588623046875	-390.6634216308595	-133.5871276855469	1000.253967285156	-481.5778808593751	-57.74837875366212	768.9404907226565	-493.3832092285157	-115.0769500732422	763.5826416015626	-525.0032958984376	-51.78823852539064	679.3435668945314	-521.1304321289064	-11.40824604034424	1271.768310546875	-47.82173919677735	-1.630335330963135	989.0256347656252	69.4042205810547	183.3828430175782	834.0759277343752	4.646526813507081	139.006332397461	793.2371215820315	54.35447311401369	245.3016815185547	774.742126464844	24.19789123535157	36.63806915283204	841.9093017578127	-341.2712707519532	17.74630355834961	843.255798339844	-64.87664031982423	-149.4228515625	858.5545043945315	-213.2899169921876	18.83823394775391	571.9225463867189	-421.0352478027345	111.1772079467774	425.3165588378907	-335.2250366210938	142.6374969482422	188.5321655273438	-360.2256469726563	195.3733367919922	65.40477752685548	-299.3191223144532	140.4331359863282	44.46709442138673	-257.5306701660157	304.3193664550782	64.53845977783205	-271.9537048339844	-79.75997161865236	561.1362304687501	-26.64575958251954	-126.0188369750977	391.6144409179689	-107.8301849365235	-249.7228393554688	186.9206695556641	-81.91224670410158	-331.5430908203126	95.75415039062501	-137.87158203125	-384.824188232422	111.2939453125	-186.9528198242188	-235.4401855468751	45.73985671997071	-164.59765625	
5	0.99	120.549560546875	1524.120239257813	-266.6788330078126	103.9259948730469	1496.56298828125	-145.5077209472657	-30.8758888244629	1446.70703125	-288.2875976562501	-44.76778030395509	1425.4921875	-158.1409606933594	-80.74645996093751	1336.7939453125	-214.1282196044922	-148.0132904052735	1117.131225585938	-217.3367767333985	65.9174270629883	1235.576782226563	-231.8213348388672	123.5178604125977	1078.608520507813	-222.1319427490235	-38.90895462036134	1291.60009765625	-391.511199951172	-119.4372863769532	999.8150634765627	-482.6754150390626	-43.00068664550782	768.7474365234377	-495.2618103027345	-100.2990341186524	763.4197998046876	-526.9271240234376	-36.77879333496094	679.4007568359376	-523.6154174804689	1.236677050590515	1271.82861328125	-48.86180877685548	8.793098449707033	988.3858032226565	67.38319396972658	190.8672637939453	829.4573364257815	3.858553647994996	145.390609741211	789.640319824219	53.36320114135744	251.4125061035157	768.965026855469	23.94320487976075	47.82951736450196	843.0291137695315	-342.9052429199219	30.34071731567384	842.798278808594	-66.65041351318361	-137.7391662597657	858.7137451171877	-213.7482147216797	32.46451950073243	573.6230468750001	-422.4993896484376	122.2434539794922	425.8337402343751	-336.7601013183594	148.8194885253907	188.3578033447266	-361.0050048828126	197.2972869873047	64.29872131347658	-299.3161926269532	141.5233154296875	45.26092910766602	-257.7662658691407	306.1846008300782	60.23019027709962	-271.4342651367188	-65.56475830078126	559.9934692382814	-27.97333717346192	-111.0810699462891	390.7946166992189	-107.6958312988282	-241.3388366699219	190.7030181884766	-81.36965179443361	-326.4789123535157	102.0380554199219	-137.0317077636719	-378.4943237304688	120.1879959106446	-186.2986755371094	-233.8927001953126	46.09191513061524	-164.7629699707032	
6	1	133.0079650878907	1524.346801757813	-267.7163696289063	116.4985885620117	1496.798583984375	-146.5339050292969	-18.60805892944336	1447.2529296875	-289.1326904296876	-32.35686111450196	1426.057861328125	-158.9688415527344	-68.53137969970705	1337.414428710938	-214.9100341796876	-136.1313171386719	1117.785766601563	-217.5220947265626	77.96287536621095	1236.032592773438	-232.9512481689454	135.5505981445313	1079.05615234375	-223.7831115722657	-26.99107360839844	1291.984130859375	-392.3149414062501	-105.0855331420899	999.7531738281252	-483.7596435546876	-27.79589271545411	769.0225830078127	-497.0194091796876	-85.03330993652345	763.6520996093751	-528.7706909179689	-21.20217514038086	679.9066162109376	-525.9232788085939	13.8914852142334	1272.258056640625	-49.87842559814455	19.12690925598145	988.0737304687502	65.2930374145508	197.7856903076172	824.7331542968752	3.087858438491822	151.1168975830078	786.113464355469	52.4066734313965	256.7651672363282	762.9512939453126	23.74078750610352	59.03707885742189	844.5600585937502	-344.5956726074219	42.86664962768555	842.648864746094	-68.52890014648439	-126.0816345214844	859.129089355469	-214.3135528564454	45.68870925903321	575.5035400390626	-424.1714782714845	132.7421875	426.4011230468751	-338.3494262695313	154.725082397461	188.2827911376953	-361.9358215332032	198.8972320556641	63.46657943725587	-299.3426818847657	142.3744506835938	46.02984237670899	-258.0871887207032	307.6704406738282	56.61639404296876	-270.8766479492188	-50.69820022583009	558.9893798828126	-29.24915885925294	-94.9254608154297	389.9663696289064	-107.443832397461	-231.8282623291016	195.1082305908204	-80.7660369873047	-320.3013305664063	109.1488800048828	-136.2217407226563	-370.6650085449219	129.9715423583985	-185.8682098388672	-231.8299102783204	46.77753448486329	-164.7933959960938	
